<?xml version="1.0" encoding="UTF-8"?>
<svg xmlns="http://www.w3.org/2000/svg" viewBox="0 0 429.83 232.79">
  <defs>
    <style>
      .cls-1, .cls-2, .cls-3, .cls-4, .cls-5, .cls-6, .cls-7, .cls-8 {
        stroke: #111f32;
        stroke-miterlimit: 10;
      }

      .cls-1, .cls-7 {
        fill: none;
      }

      .cls-2 {
        stroke-width: 3px;
      }

      .cls-2, .cls-3, .cls-4, .cls-6, .cls-8 {
        fill: #008988;
      }

      .cls-3, .cls-5 {
        stroke-width: 8px;
      }

      .cls-4 {
        stroke-width: 5px;
      }

      .cls-5 {
        fill: #f6f6f6;
      }

      .cls-6 {
        stroke-width: 12px;
      }

      .cls-9 {
        fill: #111f32;
      }

      .cls-7, .cls-8 {
        stroke-width: 4px;
      }
    </style>
  </defs>
  <g id="Grundgerüst">
    <path class="cls-3" d="M5,113.61c.37-.46.97-.89,2.15-1.72,1.02-.72,1.56-1.04,2.73-1.81.69-.45,1.09-.73,2.54-1.72,8.43-5.8,8.36-5.76,8.58-5.91,4.67-3.28,8.48-6.41,12.88-10.02,4.28-3.52,5.31-4.53,11.51-9.83,0,0,5.78-4.94,12.8-10.78,8.6-7.14,16.53-13.73,26.41-20.94,3.94-2.87,10.83-7.88,19.75-13.43,9.84-6.11,23.41-14.54,42.58-21.55,21.13-7.74,38.84-10.03,43.51-10.59,7.6-.91,27.39-2.82,52.28.9,30.6,4.58,51.76,15.09,65.06,21.84,26.94,13.67,46.37,30.25,53.46,36.29,20.8,17.75,21.17,18.07,21.17,18.07,15.68,13.67,15.68,14.32,20,16.67,7.1,3.87,12.89,9.52,20.58,12.48.42.16,2.05.76,2.63,2.05.45,1,.1,2.02,0,2.3-.37,1.04-1.14,1.7-1.46,1.97-3.22,2.67-18.79,13.11-21.46,14.94-1.52,1.04-3.32,2.48-6.93,5.34-10.96,8.71-18.52,16.13-20.78,18.31-12.13,11.72-27.14,22.93-34.92,28.74-10.24,7.64-30.64,22.88-60.77,33.01-40.92,13.76-77.1,10.49-86.04,9.53-32.44-3.49-55.28-14.13-66.82-19.63-23.3-11.1-39.86-24.35-49.55-32.11-9.39-7.52-9.77-8.8-34.82-29.97-8.65-7.3-25.37-21.32-30.92-23.48-2.57-1-3.54-1.87-5.46-3.61-.87-.78-1.54-1.53-1.66-2.56-.16-1.35.71-2.45.98-2.78Z"/>
    <path class="cls-5" d="M37.06,113.62c.32-.37.84-.72,1.87-1.38.89-.58,1.36-.83,2.38-1.45.6-.36.95-.59,2.21-1.38,7.36-4.66,7.3-4.62,7.5-4.75,4.08-2.63,7.41-5.14,11.24-8.04,3.74-2.82,4.64-3.63,10.05-7.89,0,0,5.04-3.97,11.18-8.65,7.51-5.73,14.43-11.02,23.06-16.81,3.44-2.31,9.45-6.33,17.25-10.78,8.59-4.9,20.44-11.67,37.18-17.31,18.45-6.21,33.92-8.06,37.99-8.5,6.64-.73,23.91-2.26,45.65.73,26.72,3.67,45.2,12.12,56.81,17.54,23.52,10.98,40.49,24.29,46.68,29.14,18.17,14.25,18.48,14.5,18.48,14.5,13.7,10.97,13.69,11.49,17.46,13.38,6.2,3.11,11.26,7.65,17.97,10.02.37.13,1.79.61,2.3,1.65.39.8.09,1.62,0,1.85-.32.83-.99,1.36-1.28,1.58-2.81,2.14-16.41,10.53-18.74,12-1.33.84-2.9,1.99-6.05,4.29-9.57,6.99-16.17,12.95-18.14,14.7-10.59,9.41-23.7,18.41-30.49,23.07-8.94,6.14-26.76,18.37-53.06,26.5-35.73,11.05-67.32,8.42-75.12,7.65-28.33-2.81-48.27-11.34-58.35-15.76-20.35-8.91-34.8-19.55-43.27-25.78-8.2-6.04-8.53-7.07-30.41-24.06-7.55-5.87-22.15-17.12-27-18.86-2.25-.8-3.09-1.5-4.77-2.9-.76-.63-1.34-1.23-1.45-2.05-.14-1.08.62-1.96.85-2.23Z"/>
    <path class="cls-5" d="M403.68,114.36c.99.75,2.16,1.47,3.53,2.04,6.82,2.83,13.62-.07,15.62-1.02"/>
    <path class="cls-9" d="M406.36,116.15c.85.3,1.74.41,2.63.52.77.1,1.53.21,2.3.3s1.52.08,2.29.04c.91-.04,1.84-.09,2.73-.31,1.27-.31,2.15-1.82,1.75-3.08-.43-1.32-1.71-2.07-3.08-1.75-.2.05-.39.08-.59.11l.66-.09c-.99.12-2.02.17-3.02.13s-2.04-.22-3.04-.36l.66.09c-.67-.09-1.33-.21-1.97-.44-1.24-.43-2.79.49-3.08,1.75-.32,1.39.42,2.61,1.75,3.08h0Z"/>
    <path class="cls-9" d="M404.13,114.59l1.27.37c.33.1.66.12,1,.04.33-.02.64-.11.93-.3.29-.16.53-.37.7-.64.22-.24.37-.52.45-.85l.09-.66c0-.45-.12-.87-.34-1.26l-.39-.51c-.31-.31-.68-.52-1.1-.64l-1.27-.37c-.33-.1-.66-.12-1-.04-.33.02-.64.11-.93.3-.29.16-.53.37-.7.64-.22.24-.37.52-.45.85l-.09.66c0,.45.12.87.34,1.26l.39.51c.31.31.68.52,1.1.64h0Z"/>
    <path class="cls-9" d="M403.77,113.96c4.66,1.95,9.79,2.36,14.74,1.48,1.29-.23,2.14-1.87,1.75-3.08-.45-1.39-1.69-1.99-3.08-1.75-.31.06-.63.11-.95.15.52-.07-.26.02-.29.03-.56.06-1.12.09-1.68.11-1.08.03-2.16-.02-3.24-.13-.12-.01-.24-.03-.36-.04.27.04.25.03-.05-.01-.24-.04-.47-.08-.71-.12-.55-.1-1.1-.23-1.64-.37-1.08-.28-2.14-.65-3.18-1.08-1.21-.51-2.8.54-3.08,1.75-.33,1.46.45,2.53,1.75,3.08h0Z"/>
    <path class="cls-9" d="M404.19,113.88c3.49.83,7.11,1.14,10.69.81.68-.06,1.27-.24,1.77-.73.43-.43.76-1.15.73-1.77-.06-1.25-1.11-2.63-2.5-2.5-1.64.15-3.3.17-4.95.06-.38-.03-.76-.06-1.14-.1-.07,0-.82-.09-.42-.05s-.35-.05-.42-.06c-.82-.13-1.62-.29-2.43-.48-1.27-.3-2.77.4-3.08,1.75s.39,2.75,1.75,3.08h0Z"/>
    <path class="cls-9" d="M404.43,113.86c3.22,0,3.22-5,0-5s-3.22,5,0,5h0Z"/>
    <path class="cls-9" d="M404.2,113.75c3.22,0,3.22-5,0-5s-3.22,5,0,5h0Z"/>
    <path class="cls-7" d="M307.22,186.33c-.41.87-.83,1.72-1.28,2.55-11.36,21.2-35.86,30.49-55.79,34.72"/>
    <path class="cls-9" d="M291.91,212.18c4.27-2.8,8.6-5.67,11.99-9.54s6.63-8.58,8.97-13.34l-4.57-.6c.48,2.22-1.22,4.42-2.55,6.02-1.78,2.14-3.49,4.18-4.51,6.82-.66,1.72,1.37,3.72,3.08,3.08,5.61-2.11,10.49-5.75,15.45-9.03,5.21-3.44,10.4-6.92,15.52-10.49,1.02-.71,1.55-1.93,1.02-3.12-.47-1.07-1.76-1.87-2.95-1.45-7.5,2.68-14.77,5.96-21.72,9.85l3.03,3.93c2.95-3.39,7.54-4.73,10.47-8.18.81-.95,1.01-2.26.2-3.28-.74-.93-2.16-1.33-3.23-.64-3.22,2.06-6.66,3.61-10.35,4.63l3.08,1.75.02.12-.34,1.26c.4-.84,1.62-1.6,2.33-2.25.96-.88,1.92-1.76,2.88-2.63,1.76-1.61-.08-5.12-2.43-4.18-2.13.85-4.01,2.05-5.49,3.84-2.04,2.47,1.08,5.68,3.54,3.54,1.55-1.35,3.37-2.34,5.16-3.34,1.92-1.08,3.87-2.12,5.83-3.12,3.87-1.98,7.82-3.83,11.83-5.51l-1.93-4.57c-4.9,2.12-9.81,4.23-14.71,6.35l2.52,4.32c3.09-1.71,6.24-3.32,9.43-4.82,2.96-1.39,5.98-2.92,9.23-3.48l-2.43-4.18c-2.9,2.34-5.81,4.67-8.71,7.01-2.63,2.12-5.39,4.15-7.57,6.74-.95,1.13-.91,2.4,0,3.54,1.86,2.34,5.12,0,6.94-1.13,2.18-1.36,4.25-2.91,6.17-4.61,1.72-1.52,4.96-3.92,3.52-6.56s-5.49-1.8-7.78-1.25c-3.13.75-1.8,5.57,1.33,4.82.61-.15,1.19-.26,1.82-.29.31-.02.61-.02.91-.01.15,0,.31,0,.46.02.4.03.31,0-.29-.08l-.9-.9.13.21-.34-1.26v.3c.11-.42.23-.84.34-1.26-.41.81-1.55,1.64-2.26,2.29-.84.77-1.72,1.51-2.63,2.2s-1.86,1.33-2.82,1.94c-.54.34-1.1.67-1.66.99-.25.14-.5.28-.75.42-.13.07-.25.14-.38.2-.48.23-.23.21.76-.05l1.1.64-.14-.18v3.54c2.18-2.6,4.94-4.63,7.57-6.74,2.9-2.34,5.81-4.67,8.71-7.01.85-.68.91-2.15.39-3.03-.6-1.02-1.72-1.34-2.82-1.15-3.5.6-6.79,2.29-9.98,3.78-3.35,1.56-6.64,3.24-9.87,5.03-1.18.65-1.57,2.28-.9,3.42.75,1.28,2.18,1.43,3.42.9,4.9-2.12,9.81-4.23,14.71-6.35,2.57-1.11.69-5.67-1.93-4.57-4.41,1.85-8.77,3.84-13.03,6.02s-8.5,4.19-12,7.25l3.54,3.54c.9-1.09,1.95-2.03,3.28-2.56l-2.43-4.18c-1.38,1.26-2.76,2.52-4.14,3.79-1.28,1.17-2.78,2.67-2.03,4.59.49,1.26,1.66,2.14,3.08,1.75,4.08-1.13,7.98-2.86,11.54-5.14l-3.03-3.93c-2.91,3.42-7.51,4.77-10.47,8.18-1.82,2.09.46,5.36,3.03,3.93,6.58-3.68,13.43-6.81,20.52-9.34l-1.93-4.57c-4.99,3.48-10.04,6.87-15.11,10.22-4.68,3.09-9.38,6.82-14.67,8.8l3.08,3.08c.99-2.58,3.3-4.52,4.88-6.73,1.84-2.57,2.85-5.62,2.18-8.76-.44-2.04-3.63-2.51-4.57-.6-2.15,4.38-4.96,8.66-8.19,12.33s-7.04,6.17-10.98,8.75c-2.68,1.76-.18,6.09,2.52,4.32h0Z"/>
    <path class="cls-9" d="M336.29,175.75c5.29-3.76,10.57-7.53,15.86-11.29l-3.03-3.93c-4.15,4.31-9.83,6.76-13.87,11.21-.83.92-.99,2.28-.2,3.28.71.89,2.2,1.39,3.23.64,5.58-4.06,11.42-7.74,17.49-11.02l-3.76-2.16c-.02-.38.53-.66,0-.28-.24.17-.44.42-.66.62-.44.41-.89.81-1.34,1.21-.96.85-1.93,1.67-2.92,2.48-1.92,1.57-3.89,3.09-5.85,4.61s-3.81,2.95-5.66,4.49-3.95,3.02-4.99,5.2c-.57,1.19-.37,2.73.9,3.42,2.58,1.41,4.66-.43,6.64-1.93s4.1-3.1,6.15-4.65l-3.03-3.93c-1.43,1.33-2.86,2.66-4.29,3.99-1.35,1.26-2.46,2.47-3.12,4.22-.49,1.31.55,2.69,1.75,3.08,2.73.89,4.78-1.4,6.57-3.08,2.02-1.89,4.03-3.8,6.02-5.71,3.93-3.78,7.82-7.6,11.67-11.46l-3.93-3.03c-1.52,2.13-3.4,4.06-5.5,5.63l3.03,3.93c6.21-7.14,12.42-14.29,18.63-21.43,2.09-2.41-1.3-5.9-3.54-3.54-5.62,5.95-11.24,11.9-16.86,17.85l3.54,3.54,5.9-7.59c1.94-2.5,3.97-4.95,5.55-7.7,1.17-2.04-.75-4.02-2.82-3.67s-3.56,2.06-5.1,3.24-3.24,2.42-4.89,3.59c-3.43,2.43-6.94,4.73-10.53,6.91l2.52,4.32c6.98-4.52,13.95-9.04,20.93-13.56l-3.03-3.93c-3.84,3.35-7.67,6.72-11.09,10.5-.9,1-.99,2.55,0,3.54,1.05,1.05,2.47.84,3.54,0,6.79-5.38,12.66-11.79,17.53-18.96l-4.32-2.52c-3.97,6.17-9.5,11.08-14.25,16.6-1.31,1.53-.55,4.39,1.77,4.27,1.93-.1,3.16-1.2,4.54-2.43s2.62-2.39,3.89-3.62c2.55-2.47,4.99-5.04,7.33-7.7l-3.54-3.54c-2.12,2.45-4.24,4.91-6.36,7.36-1.93,2.23-4.61,4.54-5.46,7.44-.62,2.08,1.82,3.94,3.67,2.82,5.71-3.45,10.43-8.39,13.55-14.28,1.28-2.42-1.92-5.19-3.93-3.03-4.65,5.01-8.6,10.72-12.76,16.14-.75.97-.25,2.56.64,3.23.97.73,2.4.72,3.28-.2,5.78-6,11.56-11.99,17.34-17.99,2.26-2.34-1.12-5.62-3.54-3.54-7.49,6.45-14.74,13.16-21.73,20.14l3.54,3.54c1.2-1.3,2.3-2.68,3.31-4.12.77-1.11.2-2.78-.9-3.42-1.25-.73-2.64-.21-3.42.9s-1.62,2.13-2.53,3.11c-2.18,2.35,1.25,5.82,3.54,3.54,7-6.98,14.24-13.69,21.73-20.14l-3.54-3.54c-5.78,6-11.56,11.99-17.34,17.99l3.93,3.03c3.9-5.08,7.62-10.42,11.98-15.12l-3.93-3.03c-2.74,5.16-6.75,9.46-11.76,12.49l3.67,2.82c.31-1.03,1.26-1.87,1.95-2.66.95-1.1,1.91-2.21,2.86-3.31,1.91-2.21,3.82-4.41,5.73-6.62.88-1.02,1-2.53,0-3.54-.91-.91-2.64-1.02-3.54,0-2.04,2.31-4.15,4.56-6.34,6.73-1.04,1.03-2.1,2.04-3.17,3.03-.57.52-1.14,1.04-1.71,1.55-.28.25-.6.49-.86.77-.22.22-.65.23-.14.2l1.77,4.27c5.04-5.86,10.83-11.08,15.03-17.61,1.75-2.73-2.53-5.16-4.32-2.52-4.62,6.81-10.3,12.84-16.74,17.95l3.54,3.54c3.42-3.79,7.25-7.15,11.09-10.5,2.13-1.86-.65-5.47-3.03-3.93-6.98,4.52-13.95,9.04-20.93,13.56-2.69,1.74-.24,6,2.52,4.32,3.45-2.1,6.84-4.31,10.15-6.64,1.65-1.16,3.29-2.36,4.9-3.57.79-.6,1.58-1.2,2.36-1.81.59-.46,1.16-1.08,1.92-1.2l-2.82-3.67c-1.45,2.52-3.28,4.78-5.06,7.07-1.87,2.4-3.74,4.81-5.6,7.21-.83,1.07-1.04,2.5,0,3.54.94.94,2.6.98,3.54,0,5.62-5.95,11.24-11.9,16.86-17.85l-3.54-3.54c-6.21,7.14-12.42,14.29-18.63,21.43-.81.94-1,2.27-.2,3.28.7.88,2.21,1.4,3.23.64,2.83-2.12,5.23-4.55,7.3-7.42,1.68-2.34-1.97-5-3.93-3.03-3.39,3.4-6.81,6.77-10.26,10.11-1.7,1.64-3.4,3.27-5.12,4.89-.83.78-1.66,1.56-2.49,2.34-.47.44-.93.91-1.43,1.33-.54.46-.43.19-.1.29l1.75,3.08c.4-1.06,1.75-1.94,2.54-2.68,1.19-1.11,2.38-2.21,3.57-3.32,2.03-1.89-.73-5.66-3.03-3.93-1.54,1.16-3.08,2.32-4.61,3.48-.77.58-1.54,1.16-2.31,1.74-.32.24-.64.49-.96.73-.16.12-.32.24-.48.35-.6.28-.39.37.62.27l.9,3.42c.97-2.03,3.38-3.52,5.08-4.9,2.05-1.66,4.14-3.26,6.22-4.88s4.03-3.15,5.98-4.81c1.83-1.56,4.96-3.55,4.83-6.27-.09-1.92-2.05-3.08-3.76-2.16-6.07,3.28-11.92,6.96-17.49,11.02l3.03,3.93c4.03-4.44,9.72-6.89,13.87-11.21,1.89-1.96-.63-5.63-3.03-3.93-5.29,3.76-10.57,7.53-15.86,11.29-1.1.78-1.62,2.18-.9,3.42.64,1.09,2.31,1.68,3.42.9h0Z"/>
    <path class="cls-9" d="M372.38,147.21c7.83-3.3,15.49-6.98,22.92-11.12,3.61-2.01,7.31-4.02,10.71-6.38,1.63-1.13,3.07-2.44,4-4.22,1.01-1.92,1.66-4.08,2.42-6.12.69-1.85-1.36-3.52-3.08-3.08s-3.32,1.65-4.1,3.32c-.48,1.02-.44,2.19.39,3.03.76.76,2.1.99,3.03.39s1.84-.93,2.93-.97l-2.41-3.16c-.08.31-.39.71-.68.66l1.75,1.75c-.12-.47-.11-.62-.08-1.11.09-1.69-1.66-2.76-3.16-2.41-5.82,1.36-10.67,4.55-15.54,7.86s-10.15,6.96-14.99,10.74c-2.21,1.73-4.62,3.54-5.09,6.5s1.52,6,4.66,6.01c2.69,0,4.25-2.59,6.2-4.06,2.4-1.8,4.82-3.59,7.2-5.43,5.33-4.13,10.51-8.45,15.55-12.94,1.84-1.64-.09-4.98-2.43-4.18-3.38,1.16-6.66,2.62-9.76,4.39-1.42.81-1.62,2.78-.51,3.93,2.34,2.41,5.94-.15,8.22-1.39,2.67-1.46,5.22-3.12,7.65-4.95,1.08-.81,1.63-2.16.9-3.42-.62-1.06-2.33-1.71-3.42-.9-1.88,1.42-3.84,2.73-5.87,3.94-.98.58-1.98,1.13-2.99,1.66-.54.28-1.09.55-1.63.82-.17.07-.34.15-.5.25-.46.12-.38.12.25,0l1.1.64-.18-.19-.51,3.93c2.74-1.57,5.58-2.87,8.57-3.89l-2.43-4.18c-3.8,3.39-7.69,6.69-11.67,9.88s-8.08,5.94-11.91,9.14c-.38.32-.74.65-1.09,1-.14.15-.85.72-.89.93-.02.11.3.07.35.02,0,0,0-.04,0-.04.05.23.07.22.05-.04-.02-.12,0-.24.06-.34.23-.82,1.06-1.44,1.68-1.97.98-.83,1.99-1.61,3.01-2.38,4.16-3.13,8.45-6.11,12.75-9.04,4.59-3.12,9.07-6.22,14.55-7.5l-3.16-2.41c-.04.82.06,1.64.26,2.44s.92,1.61,1.75,1.75c3.04.52,6.01-1.07,6.83-4.15.41-1.53-.77-3.21-2.41-3.16-1.95.06-3.81.58-5.46,1.65l3.42,3.42c.28-.6.46-.85,1.11-1.02l-3.08-3.08c-.65,1.76-1.18,3.65-2.11,5.28-.77,1.36-2.14,2.18-3.43,2.98-3.31,2.07-6.69,4.04-10.11,5.92-6.79,3.74-13.76,7.15-20.9,10.16-1.24.52-2.14,1.65-1.75,3.08.32,1.17,1.82,2.27,3.08,1.75h0Z"/>
    <path class="cls-9" d="M379.16,104.43c.37.21.71.43,1.06.67.09.07.3.22.09.06.17.13.33.26.48.4.58.49,1.13,1.01,1.68,1.54,1.25,1.19,2.56,2.28,3.89,3.37s2.51,2.16,3.67,3.35c.55.57,1.09,1.16,1.6,1.77.62.72.96,1.16,1.42,1.78.77,1.05,2.2,1.68,3.42.9,1.04-.67,1.73-2.29.9-3.42-2.17-2.95-4.63-5.6-7.47-7.92-1.37-1.12-2.7-2.24-3.98-3.46s-2.66-2.47-4.24-3.36c-1.14-.65-2.78-.31-3.42.9s-.32,2.73.9,3.42h0Z"/>
    <path class="cls-9" d="M395.66,115.92c.13.1.28.51.35.67.11.22.52,1.44.42.74-.08-.57.13-.27-.13-.19-.16.05-.4.41-.52.53-.4.42-.78.85-1.16,1.29-1.46,1.74-2.77,3.6-3.97,5.53-1.13,1.81-2.17,3.68-3.25,5.53-.69,1.19-1.64,3.63-3.06,3.95l1.93,4.57.19-.09c1.22-.57,1.53-2.33.9-3.42-.73-1.26-2.19-1.47-3.42-.9l-.19.09c-1.11.52-1.48,2.08-1.02,3.12.51,1.17,1.7,1.73,2.95,1.45,2.83-.64,4.3-3.27,5.66-5.58s2.75-4.84,4.26-7.18c.69-1.06,1.4-2.11,2.2-3.09.88-1.08,1.96-2.01,2.78-3.14,1.92-2.67-.08-6.47-2.39-8.2-1.08-.81-2.79-.17-3.42.9-.75,1.28-.19,2.61.9,3.42h0Z"/>
    <path class="cls-1" d="M240.19,200.12c2.64-.54,5.3-1.13,7.96-1.78,38.05-9.17,88.43-31.17,139.66-86.35"/>
    <path class="cls-9" d="M243.52,204.63c2.16-.21,4.33-.87,6.42-1.44s4.18-1.3,6.21-2.18c1.21-.52,1.57-2.38.9-3.42-.81-1.25-2.13-1.45-3.42-.9-.26.11-.26.11.01,0-.13.05-.26.11-.39.16-.2.08-.39.15-.59.23-.46.17-.93.34-1.4.49-.87.29-1.75.55-2.64.79s-1.78.47-2.68.68c-.48.12-.96.23-1.45.34-.21.05-.41.1-.62.14-.13.03-1,.15-.35.09-1.3.12-2.56,1.06-2.5,2.5.06,1.25,1.11,2.63,2.5,2.5h0Z"/>
    <path class="cls-9" d="M258.44,200.49c6.22-1.44,12.4-3.08,18.51-4.91l-1.33-4.82c-.77.3-1.55.55-2.37.63l.66,4.91c.52-.18,1.03-.36,1.55-.54l-1.33-4.82c-.58.22-1.14.39-1.75.51l1.33,4.82c4.67-1.89,9.34-3.79,14.02-5.66s9.15-3.53,13.97-4.48c1.33-.26,2.08-1.84,1.75-3.08-.38-1.38-1.75-2.01-3.08-1.75-4.82.95-9.42,2.66-13.97,4.48s-9.35,3.77-14.02,5.66c-2.93,1.18-1.89,5.5,1.33,4.82.6-.13,1.17-.29,1.75-.51,1.26-.48,2.13-1.69,1.75-3.08-.34-1.24-1.8-2.19-3.08-1.75-.52.18-1.03.36-1.55.54-1.17.41-1.98,1.47-1.79,2.74.17,1.13,1.2,2.29,2.46,2.17s2.5-.34,3.7-.81,2.13-1.68,1.75-3.08c-.35-1.28-1.78-2.14-3.08-1.75-6.12,1.84-12.29,3.47-18.51,4.91-3.13.72-1.81,5.55,1.33,4.82h0Z"/>
    <path class="cls-9" d="M294.07,187.56c2.11.27,4.09-.19,6-1.07.99-.46,1.42-1.83,1.15-2.82-.32-1.15-1.3-1.7-2.41-1.84-1.43-.17-2.84-.05-4.25.26l1.33,4.82c3.09-1.01,6.11-2.2,9.08-3.53,2.61-1.17.75-5.34-1.93-4.57-1.3.38-2.6.75-3.9,1.13l1.33,4.82c3.64-1.26,6.99-3.43,10.36-5.27s6.71-3.53,9.86-5.61c2.77-1.83,5.26-3.8,8.39-4.99.82-.31,1.55-.7,2.13-1.36.13-.15.96-1.19.25-.6.35-.29.95-.39,1.38-.59,1.74-.82,3.31-1.95,4.73-3.25,2.38-2.17-1.16-5.7-3.54-3.54-1.16,1.06-2.47,1.91-3.9,2.55-.9.41-2,.8-2.48,1.75-.16.31-.36.52.1.21-.26.18-.72.24-1.01.34-3.2,1.17-5.77,3.29-8.57,5.15-3.02,1.99-6.27,3.64-9.43,5.38s-6.23,3.84-9.59,5c-3.01,1.04-1.8,5.73,1.33,4.82,1.3-.38,2.6-.75,3.9-1.13l-1.93-4.57c-2.57,1.16-5.2,2.15-7.88,3.03-3.06,1-1.82,5.51,1.33,4.82.98-.22,1.92-.2,2.92-.08l-1.26-4.66c-1.11.51-2.28.54-3.47.39-1.34-.17-2.5,1.27-2.5,2.5,0,1.49,1.15,2.33,2.5,2.5h0Z"/>
    <path class="cls-9" d="M334.75,164.32c3.22,0,3.22-5,0-5s-3.22,5,0,5h0Z"/>
    <path class="cls-9" d="M337.77,163.03l1.4-.52-1.93-4.57s.83.07-.21,0l1.26,4.66c2.1-1.57,4.19-3.17,6.35-4.65,1.08-.74,2.2-1.43,3.17-2.33.8-.74,1.52-1.32,2.43-1.91,1.99-1.29,3.5-3.1,5.38-4.53,2.05-1.56,4.14-2.97,5.97-4.8,2.28-2.28-1.25-5.81-3.54-3.54-1.63,1.62-3.45,2.87-5.27,4.25s-3.39,3.24-5.37,4.49c-.94.59-1.83,1.22-2.63,2s-1.72,1.4-2.67,2.05c-2.17,1.48-4.25,3.08-6.35,4.65-1.99,1.49-1.33,4.46,1.26,4.66.98.07,1.89-.19,2.73-.67,2.39-1.36.79-5.58-1.93-4.57l-1.4.52c-1.26.47-2.13,1.69-1.75,3.08.33,1.21,1.8,2.22,3.08,1.75h0Z"/>
    <path class="cls-9" d="M362.59,143.19c3.32-1.76,6.07-4.61,8.73-7.21,1.2-1.17,2.34-2.33,3.71-3.31s2.76-2.07,3.65-3.62l-4.32-2.52c-.19.34-.31.52-.69.65l2.82,3.67c1-1.32,2.45-2.45,3.62-3.63,1.36-1.36,2.7-2.73,4.04-4.11,2.53-2.59,5.74-5.15,7.14-8.56l-4.18,1.1c.54.55,1.06,1.12,1.57,1.7.2.23.41.46.6.7.15.18.3.35.44.53.27.37.25.21-.07-.48l.34-1.26c-.5,1.13-2.33,1.74-3.31,2.39-1.53,1.02-2.99,2.15-4.38,3.34-1.03.88-.9,2.63,0,3.54,1.02,1.02,2.51.88,3.54,0,1.19-1.02,2.43-1.95,3.74-2.81s2.73-1.49,3.8-2.59c1.24-1.27,1.73-3.06.71-4.62-.95-1.44-2.26-2.74-3.45-3.98-1.44-1.48-3.5-.55-4.18,1.1-.54,1.31-2.06,2.43-3.01,3.42-1.28,1.32-2.56,2.65-3.85,3.96-2.47,2.53-5.3,4.9-7.44,7.72-1.33,1.76.87,4.3,2.82,3.67,1.59-.51,2.86-1.48,3.68-2.95,1.57-2.81-2.71-5.32-4.32-2.52-.61,1.06-1.66,1.68-2.63,2.38-1.44,1.06-2.67,2.29-3.95,3.54-2.37,2.31-4.77,4.86-7.72,6.43s-.32,5.83,2.52,4.32h0Z"/>
    <path class="cls-9" d="M385.83,126.25c-.02-.23-.05-.47-.09-.7,0-.01,0-.02,0-.04-.07-.22-.17-.42-.26-.63,0-.01-.01-.02-.02-.03,0,0,0-.01-.01-.02,0,0,0,0,0,0l-.39-.51s-.02-.02-.02-.03-.02-.02-.03-.03c-.17-.15-.35-.28-.53-.41-.01,0-.02-.01-.03-.02-.1-.06-.26-.11-.33-.14s-.22-.1-.33-.14c-.01,0-.02,0-.04,0-.23-.04-.46-.07-.7-.09-.01,0-.03,0-.04,0-.23.01-.47.05-.7.09-.01,0-.03,0-.04,0l-.6.25c-.29.16-.53.37-.7.64-.15.16-.26.34-.32.55-.16.3-.23.62-.22.96,0,0,0,.02,0,.03,0,.11.05.38.05.34,0,.01.02.23.05.34,0,0,0,.02,0,.02.08.21.16.42.26.62,0,0,0,.01.01.02.12.18.26.36.4.52,0,0,.01.01.02.02.08.07.22.17.26.2.04.03.17.14.26.2,0,0,.01,0,.02.01.18.1.9.37.62.26.02,0,.03.01.05.01.65.12.53.11,1.04.05.53-.07.33-.02.97-.31.29-.16.53-.37.7-.64.22-.24.37-.52.45-.85.1-.33.12-.66.04-1-.02-.33-.11-.64-.3-.93l-.39-.51c-.31-.31-.68-.52-1.1-.64l-.66-.09c-.45,0-.87.12-1.26.34h0c.2-.08.4-.17.6-.25-.01,0-.03,0-.04.01l.66-.09s-.03,0-.04,0l.66.09s-.03,0-.05-.01l.6.25s-.03-.02-.05-.03l.51.39s-.03-.02-.04-.04l.39.51s-.02-.03-.02-.04l.25.6s0-.03-.01-.04l.09.66s0-.02,0-.04l-1.84,2.41s.03,0,.05-.01l-.66.09s.05,0,.08,0l-.66-.09s.06.01.08.02l-.6-.25s.05.03.08.05l-.51-.39s.05.04.06.07l-.39-.51s.03.04.04.07l-.25-.6s.02.05.02.07l-.09-.66s0,.01,0,.02c-.01.34.06.67.22.96.1.31.27.58.52.8.23.24.49.42.8.52.3.16.62.23.96.22l.66-.09c.42-.12.79-.33,1.1-.64l.39-.51c.23-.39.34-.81.34-1.26h0Z"/>
    <path class="cls-9" d="M240.7,204.18c3.22,0,3.22-5,0-5s-3.22,5,0,5h0Z"/>
    <path class="cls-9" d="M389.28,115.91c3.22,0,3.22-5,0-5s-3.22,5,0,5h0Z"/>
    <path class="cls-9" d="M389.32,115.81c3.22,0,3.22-5,0-5s-3.22,5,0,5h0Z"/>
  </g>
  <g id="Kreis">
    <circle class="cls-6" cx="214.92" cy="116.4" r="81.95"/>
  </g>
  <g id="Uhrzeiger">
    <line class="cls-4" x1="214.92" y1="45.14" x2="214.92" y2="61.65"/>
    <line class="cls-4" x1="252.85" y1="53.82" x2="244.59" y2="68.12"/>
    <line class="cls-4" x1="278.07" y1="80.58" x2="263.77" y2="88.84"/>
    <line class="cls-4" x1="287.43" y1="116.4" x2="270.92" y2="116.4"/>
    <line class="cls-4" x1="214.92" y1="172.37" x2="214.92" y2="188.88"/>
    <line class="cls-4" x1="159.77" y1="116.4" x2="143.26" y2="116.4"/>
    <line class="cls-4" x1="178.46" y1="53.82" x2="186.71" y2="68.12"/>
    <line class="cls-4" x1="152.62" y1="80.58" x2="166.92" y2="88.84"/>
    <line class="cls-4" x1="278.07" y1="153.23" x2="263.77" y2="144.97"/>
    <line class="cls-4" x1="251.47" y1="179.52" x2="243.22" y2="165.22"/>
    <line class="cls-4" x1="178.46" y1="178.41" x2="186.71" y2="164.11"/>
    <line class="cls-4" x1="152.62" y1="153.23" x2="166.92" y2="144.97"/>
    <circle class="cls-8" cx="214.92" cy="116.4" r="4.4"/>
    <line class="cls-4" x1="210.51" y1="113.84" x2="171.67" y2="92.38"/>
    <line class="cls-2" x1="218.82" y1="114.36" x2="277.49" y2="80.91"/>
    <path class="cls-9" d="M312.3,197.34c3.22,0,3.22-5,0-5s-3.22,5,0,5h0Z"/>
  </g>
</svg>